<svg xmlns="http://www.w3.org/2000/svg" width="1890" height="738" viewBox="0 0 1890 738">
<rect width="100%" height="100%" fill="#f5f7fb" />
<text x="32" y="43" font-family="Arial" font-size="29" font-weight="700" fill="#111827">OWCS Korea 2026 Match Role Scatter Dashboard</text>
<text x="32" y="74" font-family="Arial" font-size="16" fill="#4b5563">Week 1 Day 3 Match 2 | Result: ONSIDE GAMING 3:2 T1 | Winner: ONSIDE GAMING</text>
<rect x="32" y="126" width="576" height="558" rx="10" fill="#ffffff" stroke="#d0d7de" />
<text x="122" y="160" font-family="Arial" font-size="22" font-weight="700" fill="#111827">Support DMG/10 vs H/10</text>
<line x1="122.00" y1="186" x2="122.00" y2="594" stroke="#eef2f7" />
<line x1="122" y1="594.00" x2="578" y2="594.00" stroke="#eef2f7" />
<text x="122.00" y="626" text-anchor="middle" font-family="Arial" font-size="13" font-weight="700" fill="#4b5563">2500</text>
<text x="108" y="599.00" text-anchor="end" font-family="Arial" font-size="13" font-weight="700" fill="#4b5563">5000</text>
<line x1="213.20" y1="186" x2="213.20" y2="594" stroke="#eef2f7" />
<line x1="122" y1="512.40" x2="578" y2="512.40" stroke="#eef2f7" />
<text x="213.20" y="626" text-anchor="middle" font-family="Arial" font-size="13" font-weight="700" fill="#4b5563">3200</text>
<text x="108" y="517.40" text-anchor="end" font-family="Arial" font-size="13" font-weight="700" fill="#4b5563">6400</text>
<line x1="304.40" y1="186" x2="304.40" y2="594" stroke="#eef2f7" />
<line x1="122" y1="430.80" x2="578" y2="430.80" stroke="#eef2f7" />
<text x="304.40" y="626" text-anchor="middle" font-family="Arial" font-size="13" font-weight="700" fill="#4b5563">3900</text>
<text x="108" y="435.80" text-anchor="end" font-family="Arial" font-size="13" font-weight="700" fill="#4b5563">7800</text>
<line x1="395.60" y1="186" x2="395.60" y2="594" stroke="#eef2f7" />
<line x1="122" y1="349.20" x2="578" y2="349.20" stroke="#eef2f7" />
<text x="395.60" y="626" text-anchor="middle" font-family="Arial" font-size="13" font-weight="700" fill="#4b5563">4600</text>
<text x="108" y="354.20" text-anchor="end" font-family="Arial" font-size="13" font-weight="700" fill="#4b5563">9200</text>
<line x1="486.80" y1="186" x2="486.80" y2="594" stroke="#eef2f7" />
<line x1="122" y1="267.60" x2="578" y2="267.60" stroke="#eef2f7" />
<text x="486.80" y="626" text-anchor="middle" font-family="Arial" font-size="13" font-weight="700" fill="#4b5563">5300</text>
<text x="108" y="272.60" text-anchor="end" font-family="Arial" font-size="13" font-weight="700" fill="#4b5563">10600</text>
<line x1="578.00" y1="186" x2="578.00" y2="594" stroke="#eef2f7" />
<line x1="122" y1="186.00" x2="578" y2="186.00" stroke="#eef2f7" />
<text x="578.00" y="626" text-anchor="middle" font-family="Arial" font-size="13" font-weight="700" fill="#4b5563">6000</text>
<text x="108" y="191.00" text-anchor="end" font-family="Arial" font-size="13" font-weight="700" fill="#4b5563">12000</text>
<text x="350.00" y="666" text-anchor="middle" font-family="Arial" font-size="18" font-weight="700" fill="#111827">DAMAGE per 10 min.</text>
<text x="56" y="390.00" text-anchor="middle" transform="rotate(-90 56 390.00)" font-family="Arial" font-size="18" font-weight="700" fill="#111827">HEALING per 10 min.</text>
<circle cx="492.38" cy="296.06" r="7" fill="#E2E319" fill-opacity="0.88" stroke="#ffffff" stroke-width="1.5"><title>IRONY: (5342.81, 10111.72)</title></circle>
<text x="502.38" y="286.06" font-family="Arial" font-size="12" fill="#1f2937">IRONY</text>
<circle cx="284.34" cy="392.40" r="7" fill="#E2E319" fill-opacity="0.88" stroke="#ffffff" stroke-width="1.5"><title>OPENER: (3746.02, 8458.85)</title></circle>
<text x="294.34" y="382.40" font-family="Arial" font-size="12" fill="#1f2937">OPENER</text>
<circle cx="355.30" cy="391.64" r="7" fill="#E2012D" fill-opacity="0.88" stroke="#ffffff" stroke-width="1.5"><title>BLISS: (4290.68, 8471.81)</title></circle>
<text x="365.30" y="381.64" font-family="Arial" font-size="12" fill="#1f2937">BLISS</text>
<circle cx="424.09" cy="192.00" r="7" fill="#E2012D" fill-opacity="0.88" stroke="#ffffff" stroke-width="1.5"><title>SKEWED: (4818.69, 11897.10)</title></circle>
<text x="434.09" y="182.00" font-family="Arial" font-size="12" fill="#1f2937">SKEWED</text>
<rect x="635" y="126" width="576" height="558" rx="10" fill="#ffffff" stroke="#d0d7de" />
<text x="725" y="160" font-family="Arial" font-size="22" font-weight="700" fill="#111827">DPS DMG/10 vs Kills/10</text>
<line x1="725.00" y1="186" x2="725.00" y2="594" stroke="#eef2f7" />
<line x1="725" y1="594.00" x2="1181" y2="594.00" stroke="#eef2f7" />
<text x="725.00" y="626" text-anchor="middle" font-family="Arial" font-size="13" font-weight="700" fill="#4b5563">6000</text>
<text x="711" y="599.00" text-anchor="end" font-family="Arial" font-size="13" font-weight="700" fill="#4b5563">10</text>
<line x1="816.20" y1="186" x2="816.20" y2="594" stroke="#eef2f7" />
<line x1="725" y1="512.40" x2="1181" y2="512.40" stroke="#eef2f7" />
<text x="816.20" y="626" text-anchor="middle" font-family="Arial" font-size="13" font-weight="700" fill="#4b5563">7000</text>
<text x="711" y="517.40" text-anchor="end" font-family="Arial" font-size="13" font-weight="700" fill="#4b5563">14</text>
<line x1="907.40" y1="186" x2="907.40" y2="594" stroke="#eef2f7" />
<line x1="725" y1="430.80" x2="1181" y2="430.80" stroke="#eef2f7" />
<text x="907.40" y="626" text-anchor="middle" font-family="Arial" font-size="13" font-weight="700" fill="#4b5563">8000</text>
<text x="711" y="435.80" text-anchor="end" font-family="Arial" font-size="13" font-weight="700" fill="#4b5563">18</text>
<line x1="998.60" y1="186" x2="998.60" y2="594" stroke="#eef2f7" />
<line x1="725" y1="349.20" x2="1181" y2="349.20" stroke="#eef2f7" />
<text x="998.60" y="626" text-anchor="middle" font-family="Arial" font-size="13" font-weight="700" fill="#4b5563">9000</text>
<text x="711" y="354.20" text-anchor="end" font-family="Arial" font-size="13" font-weight="700" fill="#4b5563">22</text>
<line x1="1089.80" y1="186" x2="1089.80" y2="594" stroke="#eef2f7" />
<line x1="725" y1="267.60" x2="1181" y2="267.60" stroke="#eef2f7" />
<text x="1089.80" y="626" text-anchor="middle" font-family="Arial" font-size="13" font-weight="700" fill="#4b5563">10000</text>
<text x="711" y="272.60" text-anchor="end" font-family="Arial" font-size="13" font-weight="700" fill="#4b5563">26</text>
<line x1="1181.00" y1="186" x2="1181.00" y2="594" stroke="#eef2f7" />
<line x1="725" y1="186.00" x2="1181" y2="186.00" stroke="#eef2f7" />
<text x="1181.00" y="626" text-anchor="middle" font-family="Arial" font-size="13" font-weight="700" fill="#4b5563">11000</text>
<text x="711" y="191.00" text-anchor="end" font-family="Arial" font-size="13" font-weight="700" fill="#4b5563">30</text>
<text x="953.00" y="666" text-anchor="middle" font-family="Arial" font-size="18" font-weight="700" fill="#111827">DAMAGE per 10 min.</text>
<text x="659" y="390.00" text-anchor="middle" transform="rotate(-90 659 390.00)" font-family="Arial" font-size="18" font-weight="700" fill="#111827">KILLS per 10 min.</text>
<circle cx="1052.51" cy="510.97" r="7" fill="#E2E319" fill-opacity="0.88" stroke="#ffffff" stroke-width="1.5"><title>Kilo: (9591.12, 14.07)</title></circle>
<text x="1062.51" y="500.97" font-family="Arial" font-size="12" fill="#1f2937">Kilo</text>
<circle cx="974.46" cy="567.68" r="7" fill="#E2E319" fill-opacity="0.88" stroke="#ffffff" stroke-width="1.5"><title>SP1NT: (8735.35, 11.29)</title></circle>
<text x="984.46" y="557.68" font-family="Arial" font-size="12" fill="#1f2937">SP1NT</text>
<circle cx="1121.29" cy="458.14" r="7" fill="#E2012D" fill-opacity="0.88" stroke="#ffffff" stroke-width="1.5"><title>PROUD: (10345.28, 16.66)</title></circle>
<text x="1131.29" y="448.14" font-family="Arial" font-size="12" fill="#1f2937">PROUD</text>
<circle cx="914.65" cy="477.11" r="7" fill="#E2012D" fill-opacity="0.88" stroke="#ffffff" stroke-width="1.5"><title>ZEST: (8079.46, 15.73)</title></circle>
<text x="924.65" y="467.11" font-family="Arial" font-size="12" fill="#1f2937">ZEST</text>
<rect x="1238" y="126" width="576" height="558" rx="10" fill="#ffffff" stroke="#d0d7de" />
<text x="1328" y="160" font-family="Arial" font-size="22" font-weight="700" fill="#111827">Tank DMG/10 vs E/D</text>
<line x1="1328.00" y1="186" x2="1328.00" y2="594" stroke="#eef2f7" />
<line x1="1328" y1="594.00" x2="1784" y2="594.00" stroke="#eef2f7" />
<text x="1328.00" y="626" text-anchor="middle" font-family="Arial" font-size="13" font-weight="700" fill="#4b5563">5500</text>
<text x="1314" y="599.00" text-anchor="end" font-family="Arial" font-size="13" font-weight="700" fill="#4b5563">0.5</text>
<line x1="1419.20" y1="186" x2="1419.20" y2="594" stroke="#eef2f7" />
<line x1="1328" y1="512.40" x2="1784" y2="512.40" stroke="#eef2f7" />
<text x="1419.20" y="626" text-anchor="middle" font-family="Arial" font-size="13" font-weight="700" fill="#4b5563">6700</text>
<text x="1314" y="517.40" text-anchor="end" font-family="Arial" font-size="13" font-weight="700" fill="#4b5563">2</text>
<line x1="1510.40" y1="186" x2="1510.40" y2="594" stroke="#eef2f7" />
<line x1="1328" y1="430.80" x2="1784" y2="430.80" stroke="#eef2f7" />
<text x="1510.40" y="626" text-anchor="middle" font-family="Arial" font-size="13" font-weight="700" fill="#4b5563">7900</text>
<text x="1314" y="435.80" text-anchor="end" font-family="Arial" font-size="13" font-weight="700" fill="#4b5563">3.5</text>
<line x1="1601.60" y1="186" x2="1601.60" y2="594" stroke="#eef2f7" />
<line x1="1328" y1="349.20" x2="1784" y2="349.20" stroke="#eef2f7" />
<text x="1601.60" y="626" text-anchor="middle" font-family="Arial" font-size="13" font-weight="700" fill="#4b5563">9100</text>
<text x="1314" y="354.20" text-anchor="end" font-family="Arial" font-size="13" font-weight="700" fill="#4b5563">5</text>
<line x1="1692.80" y1="186" x2="1692.80" y2="594" stroke="#eef2f7" />
<line x1="1328" y1="267.60" x2="1784" y2="267.60" stroke="#eef2f7" />
<text x="1692.80" y="626" text-anchor="middle" font-family="Arial" font-size="13" font-weight="700" fill="#4b5563">10300</text>
<text x="1314" y="272.60" text-anchor="end" font-family="Arial" font-size="13" font-weight="700" fill="#4b5563">6.5</text>
<line x1="1784.00" y1="186" x2="1784.00" y2="594" stroke="#eef2f7" />
<line x1="1328" y1="186.00" x2="1784" y2="186.00" stroke="#eef2f7" />
<text x="1784.00" y="626" text-anchor="middle" font-family="Arial" font-size="13" font-weight="700" fill="#4b5563">11500</text>
<text x="1314" y="191.00" text-anchor="end" font-family="Arial" font-size="13" font-weight="700" fill="#4b5563">8</text>
<text x="1556.00" y="666" text-anchor="middle" font-family="Arial" font-size="18" font-weight="700" fill="#111827">DAMAGE per 10 min.</text>
<text x="1262" y="390.00" text-anchor="middle" transform="rotate(-90 1262 390.00)" font-family="Arial" font-size="18" font-weight="700" fill="#111827">KILLS per LIFE</text>
<circle cx="1568.25" cy="458.00" r="7" fill="#E2E319" fill-opacity="0.88" stroke="#ffffff" stroke-width="1.5"><title>Attack: (8661.14, 3.00)</title></circle>
<text x="1578.25" y="448.00" font-family="Arial" font-size="12" fill="#1f2937">Attack</text>
<circle cx="1561.61" cy="382.38" r="7" fill="#E2012D" fill-opacity="0.88" stroke="#ffffff" stroke-width="1.5"><title>JASM1NE: (8573.78, 4.39)</title></circle>
<text x="1571.61" y="372.38" font-family="Arial" font-size="12" fill="#1f2937">JASM1NE</text>
<text x="32" y="711" font-family="Arial" font-size="16" font-weight="700" fill="#111827">Teams</text>
<circle cx="113" cy="706" r="6" fill="#E2E319" />
<text x="127" y="711" font-family="Arial" font-size="13" fill="#374151">ONSIDE GAMING</text>
<circle cx="302" cy="706" r="6" fill="#E2012D" />
<text x="316" y="711" font-family="Arial" font-size="13" fill="#374151">T1</text>
</svg>